<?xml version="1.0" encoding="UTF-8" standalone="no"?>
<!DOCTYPE svg PUBLIC "-//W3C//DTD SVG 1.1//EN" "http://www.w3.org/Graphics/SVG/1.1/DTD/svg11.dtd">
<!-- Created with Vectornator (http://vectornator.io/) -->
<svg height="100%" stroke-miterlimit="10" style="fill-rule:nonzero;clip-rule:evenodd;stroke-linecap:round;stroke-linejoin:round;" version="1.1" viewBox="0 0 158 34" width="100%" xml:space="preserve" xmlns="http://www.w3.org/2000/svg" xmlns:vectornator="http://vectornator.io" xmlns:xlink="http://www.w3.org/1999/xlink">
<defs/>
<g id="Untitled" vectornator:layerName="Untitled">
<path d="M52.3722 19.5568L45.3161 19.5568L44.0694 23.0973L40.3543 23.0973L46.837 5.69378L50.8513 5.69378L57.309 23.0973L53.5939 23.0973L52.3722 19.5568ZM51.4247 16.8889L48.8317 9.45872L46.2386 16.8889L51.4247 16.8889Z" fill="#07102d" fill-rule="nonzero" opacity="1" stroke="none"/>
<path d="M67.4595 9.10965C68.623 9.10965 69.6702 9.39223 70.6011 9.95739C71.5319 10.5225 72.255 11.3453 72.7703 12.4258C73.3022 13.4896 73.5681 14.7446 73.5681 16.1907C73.5681 17.6369 73.3022 18.9002 72.7703 19.9806C72.255 21.0444 71.5319 21.8589 70.6011 22.4241C69.6702 22.9893 68.623 23.2718 67.4595 23.2718C66.2959 23.2718 65.2986 22.9976 64.4674 22.449C63.653 21.8839 63.0712 21.1359 62.7221 20.205L62.7221 29.6797L59.2065 29.6797L59.2065 9.28419L62.7221 9.28419L62.7221 12.1515C63.0712 11.2207 63.653 10.481 64.4674 9.93246C65.2986 9.38392 66.2959 9.10965 67.4595 9.10965ZM66.3624 12.1765C65.2986 12.1765 64.4176 12.5422 63.7194 13.2735C63.0379 13.9883 62.6972 14.9607 62.6972 16.1907C62.6972 17.4042 63.0379 18.3766 63.7194 19.1079C64.4176 19.8227 65.2986 20.1801 66.3624 20.1801C67.4595 20.1801 68.3404 19.831 69.0053 19.1329C69.6702 18.4181 70.0027 17.4374 70.0027 16.1907C70.0027 14.9441 69.6702 13.9634 69.0053 13.2486C68.3404 12.5338 67.4595 12.1765 66.3624 12.1765Z" fill="#07102d" fill-rule="nonzero" opacity="1" stroke="none"/>
<path d="M84.309 9.10965C85.4725 9.10965 86.5197 9.39223 87.4506 9.95739C88.3814 10.5225 89.1045 11.3453 89.6198 12.4258C90.1517 13.4896 90.4177 14.7446 90.4177 16.1907C90.4177 17.6369 90.1517 18.9002 89.6198 19.9806C89.1045 21.0444 88.3814 21.8589 87.4506 22.4241C86.5197 22.9893 85.4725 23.2718 84.309 23.2718C83.1454 23.2718 82.1481 22.9976 81.317 22.449C80.5025 21.8839 79.9207 21.1359 79.5716 20.205L79.5716 29.6797L76.056 29.6797L76.056 9.28419L79.5716 9.28419L79.5716 12.1515C79.9207 11.2207 80.5025 10.481 81.317 9.93246C82.1481 9.38392 83.1454 9.10965 84.309 9.10965ZM83.2119 12.1765C82.1481 12.1765 81.2671 12.5422 80.569 13.2735C79.8875 13.9883 79.5467 14.9607 79.5467 16.1907C79.5467 17.4042 79.8875 18.3766 80.569 19.1079C81.2671 19.8227 82.1481 20.1801 83.2119 20.1801C84.309 20.1801 85.19 19.831 85.8549 19.1329C86.5197 18.4181 86.8522 17.4374 86.8522 16.1907C86.8522 14.9441 86.5197 13.9634 85.8549 13.2486C85.19 12.5338 84.309 12.1765 83.2119 12.1765Z" fill="#07102d" fill-rule="nonzero" opacity="1" stroke="none"/>
<path d="M29.0209 4.9792C25.8328 1.79107 21.5087 1.70198e-07 17 0C12.4914-1.70198e-07 8.16733 1.79107 4.9792 4.9792C1.79107 8.16733 5.10595e-07 12.4914 0 17C-5.10595e-07 21.5087 1.79107 25.8328 4.9792 29.0209L29.0209 4.9792Z" fill="#8b5cf6" fill-rule="nonzero" opacity="1" stroke="none"/>
<path d="M4.9792 4.979C1.79107 8.16713 2.23964e-07 12.4912 0 16.9999C-2.23964e-07 21.5085 1.79107 25.8326 4.9792 29.0207C8.16733 32.2088 12.4914 33.9999 17 33.9999C21.5087 33.9999 25.8328 32.2088 29.0209 29.0207L4.9792 4.979Z" fill="#8b5cf6" fill-rule="nonzero" opacity="0.5" stroke="none"/>
</g>
</svg>
